<svg width="30" height="32" viewBox="0 0 30 32" fill="none" xmlns="http://www.w3.org/2000/svg">
<path d="M27.6874 31.4107C27.0289 31.4107 26.4989 31.1553 25.8405 30.6839L9.47537 18.9171C8.60814 18.2689 8.11028 17.5617 7.93362 16.7366V29.3677C7.93362 31.0964 7.19486 32 5.79765 32H2.13597C0.722698 32 0 31.0964 0 29.3677V2.61265C0 0.825046 0.722698 0 2.13597 0H5.79765C7.19486 0 7.93362 0.903622 7.93362 2.61265V15.2241C8.11028 14.4187 8.60814 13.6918 9.47537 13.0632L25.8405 1.27686C26.4989 0.805402 27.0289 0.550031 27.6874 0.550031C28.9561 0.550031 30 1.72867 30 3.92879V28.0516C30 30.2517 28.9561 31.4107 27.6874 31.4107Z" fill="#383838"/>
</svg>
