<svg width="40" height="40" viewBox="0 0 40 40" fill="none" xmlns="http://www.w3.org/2000/svg">
<path d="M16.6665 24.9999L15.6058 23.9393L14.5452 24.9999L15.6058 26.0606L16.6665 24.9999ZM22.2725 17.2726L15.6058 23.9393L17.7272 26.0606L24.3938 19.3939L22.2725 17.2726ZM15.6058 26.0606L22.2725 32.7272L24.3938 30.6059L17.7272 23.9393L15.6058 26.0606Z" fill="#C3C3C3"/>
<path d="M7.00962 21.25C5.33754 19.8019 4.6812 18.116 5.14489 16.4601C5.60857 14.8042 7.16568 13.2732 9.56884 12.1104C11.972 10.9476 15.0834 10.2197 18.4087 10.0423C21.734 9.86494 25.0824 10.2482 27.9222 11.1313C30.7619 12.0144 32.9299 13.3467 34.0819 14.9164C35.2339 16.4862 35.3037 18.2034 34.2803 19.7952C33.2569 21.3871 31.1989 22.7623 28.4334 23.7024C25.6678 24.6425 22.3532 25.0935 19.0163 24.9839" stroke="#C3C3C3" stroke-width="3" stroke-linecap="round"/>
</svg>
