<svg width="30" height="32" viewBox="0 0 30 32" fill="none" xmlns="http://www.w3.org/2000/svg">
<path d="M2.31263 31.4107C2.97109 31.4107 3.50107 31.1553 4.15953 30.6839L20.5246 18.9171C21.3919 18.2689 21.8897 17.5617 22.0664 16.7366V29.3677C22.0664 31.0964 22.8051 32 24.2024 32H27.864C29.2773 32 30 31.0964 30 29.3677V2.61265C30 0.825046 29.2773 0 27.864 0H24.2024C22.8051 0 22.0664 0.903622 22.0664 2.61265V15.2241C21.8897 14.4187 21.3919 13.6918 20.5246 13.0632L4.15953 1.27686C3.50107 0.805402 2.97109 0.550031 2.31263 0.550031C1.0439 0.550031 0 1.72867 0 3.92879V28.0516C0 30.2517 1.0439 31.4107 2.31263 31.4107Z" fill="#383838"/>
</svg>
