<svg width="34" height="24" viewBox="0 0 34 24" fill="none" xmlns="http://www.w3.org/2000/svg">
<path d="M2.00016 3.66659H32.0002C32.4422 3.66659 32.8661 3.49099 33.1787 3.17843C33.4912 2.86587 33.6668 2.44195 33.6668 1.99992C33.6668 1.55789 33.4912 1.13397 33.1787 0.821408C32.8661 0.508847 32.4422 0.333252 32.0002 0.333252H2.00016C1.55814 0.333252 1.13421 0.508847 0.821651 0.821408C0.509091 1.13397 0.333496 1.55789 0.333496 1.99992C0.333496 2.44195 0.509091 2.86587 0.821651 3.17843C1.13421 3.49099 1.55814 3.66659 2.00016 3.66659ZM8.66683 6.99992C8.2248 6.99992 7.80088 7.17551 7.48832 7.48808C7.17576 7.80064 7.00016 8.22456 7.00016 8.66659C7.00016 9.10861 7.17576 9.53254 7.48832 9.8451C7.80088 10.1577 8.2248 10.3333 8.66683 10.3333H25.3335C25.7755 10.3333 26.1994 10.1577 26.512 9.8451C26.8246 9.53254 27.0002 9.10861 27.0002 8.66659C27.0002 8.22456 26.8246 7.80064 26.512 7.48808C26.1994 7.17551 25.7755 6.99992 25.3335 6.99992H8.66683ZM32.0002 13.6666H2.00016C1.55814 13.6666 1.13421 13.8422 0.821651 14.1547C0.509091 14.4673 0.333496 14.8912 0.333496 15.3333C0.333496 15.7753 0.509091 16.1992 0.821651 16.5118C1.13421 16.8243 1.55814 16.9999 2.00016 16.9999H32.0002C32.4422 16.9999 32.8661 16.8243 33.1787 16.5118C33.4912 16.1992 33.6668 15.7753 33.6668 15.3333C33.6668 14.8912 33.4912 14.4673 33.1787 14.1547C32.8661 13.8422 32.4422 13.6666 32.0002 13.6666ZM25.3335 20.3333H8.66683C8.2248 20.3333 7.80088 20.5088 7.48832 20.8214C7.17576 21.134 7.00016 21.5579 7.00016 21.9999C7.00016 22.4419 7.17576 22.8659 7.48832 23.1784C7.80088 23.491 8.2248 23.6666 8.66683 23.6666H25.3335C25.7755 23.6666 26.1994 23.491 26.512 23.1784C26.8246 22.8659 27.0002 22.4419 27.0002 21.9999C27.0002 21.5579 26.8246 21.134 26.512 20.8214C26.1994 20.5088 25.7755 20.3333 25.3335 20.3333Z" fill="#C3C3C3"/>
</svg>
