<svg width="28" height="22" viewBox="0 0 28 22" fill="none" xmlns="http://www.w3.org/2000/svg">
<path d="M14.5732 0.466547C14.3566 0.372869 14.1191 0.338322 13.8849 0.366432C13.6506 0.394541 13.4281 0.484299 13.2398 0.626546L6.8665 5.66655H1.99984C1.64622 5.66655 1.30708 5.80702 1.05703 6.05707C0.80698 6.30712 0.666504 6.64626 0.666504 6.99988V14.9999C0.666504 15.3535 0.80698 15.6926 1.05703 15.9427C1.30708 16.1927 1.64622 16.3332 1.99984 16.3332H6.8665L13.1732 21.3732C13.4078 21.5614 13.6991 21.6648 13.9998 21.6665C14.199 21.6698 14.3959 21.624 14.5732 21.5332C14.8001 21.4251 14.9918 21.2552 15.1263 21.0428C15.2607 20.8305 15.3325 20.5845 15.3332 20.3332V1.66655C15.3325 1.41523 15.2607 1.16923 15.1263 0.956918C14.9918 0.744602 14.8001 0.574611 14.5732 0.466547ZM12.6665 17.5599L8.15984 13.9599C7.92525 13.7717 7.63392 13.6683 7.33317 13.6665H3.33317V8.33321H7.33317C7.63392 8.33147 7.92525 8.22809 8.15984 8.03988L12.6665 4.43988V17.5599ZM18.1865 0.453214C18.0114 0.4287 17.8332 0.438915 17.6621 0.483273C17.4909 0.527632 17.3302 0.605267 17.189 0.711744C17.0479 0.818222 16.9291 0.951458 16.8394 1.10384C16.7498 1.25623 16.691 1.42478 16.6665 1.59988C16.642 1.77498 16.6522 1.95319 16.6966 2.12433C16.7409 2.29548 16.8186 2.45622 16.925 2.59736C17.1401 2.88242 17.4595 3.07037 17.8132 3.11988C19.7015 3.41087 21.4232 4.36805 22.6671 5.81826C23.911 7.26848 24.5947 9.11597 24.5947 11.0265C24.5947 12.9371 23.911 14.7846 22.6671 16.2348C21.4232 17.685 19.7015 18.6422 17.8132 18.9332C17.4595 18.958 17.1302 19.1222 16.8977 19.3897C16.6652 19.6573 16.5484 20.0063 16.5732 20.3599C16.5979 20.7135 16.7621 21.0428 17.0297 21.2754C17.2972 21.5079 17.6462 21.6246 17.9998 21.5999H18.1865C20.7103 21.2181 23.0135 19.9439 24.6779 18.0088C26.3424 16.0736 27.2577 13.6057 27.2577 11.0532C27.2577 8.50072 26.3424 6.03284 24.6779 4.09767C23.0135 2.1625 20.7103 0.888343 18.1865 0.506547V0.453214ZM17.5732 13.4932C17.2195 13.5498 16.9029 13.7445 16.6928 14.0346C16.4828 14.3246 16.3966 14.6863 16.4532 15.0399C16.5098 15.3935 16.7045 15.7102 16.9945 15.9202C17.2846 16.1302 17.6462 16.2165 17.9998 16.1599C18.1445 16.1583 18.2882 16.1358 18.4265 16.0932C19.4652 15.7249 20.3643 15.0439 21.0001 14.1437C21.636 13.2436 21.9774 12.1686 21.9774 11.0665C21.9774 9.96449 21.636 8.88948 21.0001 7.98936C20.3643 7.08924 19.4652 6.40819 18.4265 6.03988C18.0906 5.92672 17.7234 5.95165 17.4059 6.10918C17.0883 6.26671 16.8463 6.54394 16.7332 6.87988C16.62 7.21582 16.6449 7.58295 16.8025 7.90052C16.96 8.21808 17.2372 8.46005 17.5732 8.57321C18.0791 8.76512 18.5147 9.10641 18.8221 9.55176C19.1295 9.9971 19.2941 10.5254 19.2941 11.0665C19.2941 11.6077 19.1295 12.136 18.8221 12.5813C18.5147 13.0267 18.0791 13.368 17.5732 13.5599V13.4932Z" fill="#C3C3C3"/>
</svg>
