<svg width="16" height="22" viewBox="0 0 16 22" fill="none" xmlns="http://www.w3.org/2000/svg">
<path d="M14.5734 0.466547C14.3569 0.372869 14.1194 0.338322 13.8851 0.366432C13.6509 0.394541 13.4283 0.484299 13.2401 0.626546L6.86675 5.66655H2.00008C1.64646 5.66655 1.30732 5.80702 1.05727 6.05707C0.807224 6.30712 0.666748 6.64626 0.666748 6.99988V14.9999C0.666748 15.3535 0.807224 15.6926 1.05727 15.9427C1.30732 16.1927 1.64646 16.3332 2.00008 16.3332H6.86675L13.1734 21.3732C13.408 21.5614 13.6993 21.6648 14.0001 21.6665C14.1992 21.6698 14.3961 21.624 14.5734 21.5332C14.8003 21.4251 14.992 21.2552 15.1265 21.0428C15.261 20.8305 15.3327 20.5845 15.3334 20.3332V1.66655C15.3327 1.41523 15.261 1.16923 15.1265 0.956918C14.992 0.744602 14.8003 0.574611 14.5734 0.466547ZM12.6667 17.5599L8.16008 13.9599C7.9255 13.7717 7.63417 13.6683 7.33342 13.6665H3.33341V8.33321H7.33342C7.63417 8.33147 7.9255 8.22809 8.16008 8.03988L12.6667 4.43988V17.5599Z" fill="#C3C3C3"/>
</svg>
